<mxfile host="app.diagrams.net" modified="2023-10-21T05:28:37.501Z" agent="Mozilla/5.0 (Windows NT 10.0; Win64; x64) AppleWebKit/537.36 (KHTML, like Gecko) Chrome/118.0.0.0 Safari/537.36" etag="cjNuThCZ1fsdw0TI64VX" version="22.0.0" type="device">
  <diagram name="PÃ¡gina-1" id="5vkWipXI4Jd7R3DipBLy">
    <mxGraphModel dx="989" dy="553" grid="1" gridSize="10" guides="1" tooltips="1" connect="1" arrows="1" fold="1" page="1" pageScale="1" pageWidth="827" pageHeight="1169" math="0" shadow="0">
      <root>
        <mxCell id="0" />
        <mxCell id="1" parent="0" />
        <mxCell id="yecwBfwort3IGkdsRdy6-18" style="edgeStyle=orthogonalEdgeStyle;rounded=0;orthogonalLoop=1;jettySize=auto;html=1;entryX=0.5;entryY=0;entryDx=0;entryDy=0;" edge="1" parent="1" source="yecwBfwort3IGkdsRdy6-1" target="yecwBfwort3IGkdsRdy6-16">
          <mxGeometry relative="1" as="geometry" />
        </mxCell>
        <mxCell id="yecwBfwort3IGkdsRdy6-1" value="Case 3:" style="ellipse;whiteSpace=wrap;html=1;" vertex="1" parent="1">
          <mxGeometry x="162.5" y="50" width="110" height="60" as="geometry" />
        </mxCell>
        <mxCell id="yecwBfwort3IGkdsRdy6-21" style="edgeStyle=orthogonalEdgeStyle;rounded=0;orthogonalLoop=1;jettySize=auto;html=1;entryX=0.5;entryY=0;entryDx=0;entryDy=0;" edge="1" parent="1" source="yecwBfwort3IGkdsRdy6-2" target="yecwBfwort3IGkdsRdy6-19">
          <mxGeometry relative="1" as="geometry" />
        </mxCell>
        <mxCell id="yecwBfwort3IGkdsRdy6-2" value="concatArr(int *concat, int *arr1, int n, int *arr2, int m)" style="ellipse;whiteSpace=wrap;html=1;" vertex="1" parent="1">
          <mxGeometry x="442.5" y="40" width="205" height="70" as="geometry" />
        </mxCell>
        <mxCell id="yecwBfwort3IGkdsRdy6-10" style="edgeStyle=orthogonalEdgeStyle;rounded=0;orthogonalLoop=1;jettySize=auto;html=1;entryX=0.5;entryY=0;entryDx=0;entryDy=0;" edge="1" parent="1" source="yecwBfwort3IGkdsRdy6-3" target="yecwBfwort3IGkdsRdy6-6">
          <mxGeometry relative="1" as="geometry" />
        </mxCell>
        <mxCell id="yecwBfwort3IGkdsRdy6-3" value="concatArr(vectConcat, vect1, 5, vect2, 5)" style="rounded=0;whiteSpace=wrap;html=1;" vertex="1" parent="1">
          <mxGeometry x="101.25" y="230" width="232.5" height="50" as="geometry" />
        </mxCell>
        <mxCell id="yecwBfwort3IGkdsRdy6-11" style="edgeStyle=orthogonalEdgeStyle;rounded=0;orthogonalLoop=1;jettySize=auto;html=1;entryX=0.5;entryY=0;entryDx=0;entryDy=0;" edge="1" parent="1" source="yecwBfwort3IGkdsRdy6-6" target="yecwBfwort3IGkdsRdy6-7">
          <mxGeometry relative="1" as="geometry" />
        </mxCell>
        <mxCell id="yecwBfwort3IGkdsRdy6-6" value="&quot;Arreglo 1:&quot;" style="shape=document;whiteSpace=wrap;html=1;boundedLbl=1;" vertex="1" parent="1">
          <mxGeometry x="157.5" y="302" width="120" height="50" as="geometry" />
        </mxCell>
        <mxCell id="yecwBfwort3IGkdsRdy6-12" style="edgeStyle=orthogonalEdgeStyle;rounded=0;orthogonalLoop=1;jettySize=auto;html=1;entryX=0.5;entryY=0;entryDx=0;entryDy=0;" edge="1" parent="1" source="yecwBfwort3IGkdsRdy6-7">
          <mxGeometry relative="1" as="geometry">
            <mxPoint x="217.5" y="462" as="targetPoint" />
          </mxGeometry>
        </mxCell>
        <mxCell id="yecwBfwort3IGkdsRdy6-7" value="imprArr(vect1, 5)" style="rounded=0;whiteSpace=wrap;html=1;" vertex="1" parent="1">
          <mxGeometry x="157.5" y="382" width="120" height="50" as="geometry" />
        </mxCell>
        <mxCell id="yecwBfwort3IGkdsRdy6-13" value="break" style="ellipse;whiteSpace=wrap;html=1;" vertex="1" parent="1">
          <mxGeometry x="180" y="780" width="75" height="50" as="geometry" />
        </mxCell>
        <mxCell id="yecwBfwort3IGkdsRdy6-17" style="edgeStyle=orthogonalEdgeStyle;rounded=0;orthogonalLoop=1;jettySize=auto;html=1;entryX=0.5;entryY=0;entryDx=0;entryDy=0;" edge="1" parent="1" source="yecwBfwort3IGkdsRdy6-16" target="yecwBfwort3IGkdsRdy6-3">
          <mxGeometry relative="1" as="geometry" />
        </mxCell>
        <mxCell id="yecwBfwort3IGkdsRdy6-16" value="&lt;div&gt;int vect1[] = {4, 7, 1, 5, 9}&lt;/div&gt;&lt;div&gt;&amp;nbsp; &amp;nbsp; int vect2[] = {6, 5, 3, 2, 7}&lt;/div&gt;&lt;div&gt;int vectConcat[10];&lt;br&gt;&lt;/div&gt;" style="rounded=0;whiteSpace=wrap;html=1;" vertex="1" parent="1">
          <mxGeometry x="132.5" y="140" width="170" height="60" as="geometry" />
        </mxCell>
        <mxCell id="yecwBfwort3IGkdsRdy6-23" style="edgeStyle=orthogonalEdgeStyle;rounded=0;orthogonalLoop=1;jettySize=auto;html=1;entryX=0.5;entryY=0;entryDx=0;entryDy=0;" edge="1" parent="1" source="yecwBfwort3IGkdsRdy6-19" target="yecwBfwort3IGkdsRdy6-22">
          <mxGeometry relative="1" as="geometry" />
        </mxCell>
        <mxCell id="yecwBfwort3IGkdsRdy6-19" value="int i" style="rounded=0;whiteSpace=wrap;html=1;" vertex="1" parent="1">
          <mxGeometry x="485" y="140" width="120" height="40" as="geometry" />
        </mxCell>
        <mxCell id="yecwBfwort3IGkdsRdy6-25" style="edgeStyle=orthogonalEdgeStyle;rounded=0;orthogonalLoop=1;jettySize=auto;html=1;entryX=0.5;entryY=0;entryDx=0;entryDy=0;" edge="1" parent="1" source="yecwBfwort3IGkdsRdy6-22" target="yecwBfwort3IGkdsRdy6-24">
          <mxGeometry relative="1" as="geometry" />
        </mxCell>
        <mxCell id="yecwBfwort3IGkdsRdy6-28" style="edgeStyle=orthogonalEdgeStyle;rounded=0;orthogonalLoop=1;jettySize=auto;html=1;entryX=0.5;entryY=0;entryDx=0;entryDy=0;" edge="1" parent="1" source="yecwBfwort3IGkdsRdy6-22">
          <mxGeometry relative="1" as="geometry">
            <mxPoint x="544.9999999999998" y="462" as="targetPoint" />
            <Array as="points">
              <mxPoint x="650" y="245" />
              <mxPoint x="650" y="410" />
              <mxPoint x="545" y="410" />
            </Array>
          </mxGeometry>
        </mxCell>
        <mxCell id="yecwBfwort3IGkdsRdy6-22" value="Desde i = 0&lt;br&gt;Mientras i &amp;lt; n&lt;br&gt;Incremento i++" style="shape=hexagon;perimeter=hexagonPerimeter2;whiteSpace=wrap;html=1;fixedSize=1;" vertex="1" parent="1">
          <mxGeometry x="477.5" y="205" width="135" height="80" as="geometry" />
        </mxCell>
        <mxCell id="yecwBfwort3IGkdsRdy6-26" style="edgeStyle=orthogonalEdgeStyle;rounded=0;orthogonalLoop=1;jettySize=auto;html=1;entryX=0;entryY=0.5;entryDx=0;entryDy=0;" edge="1" parent="1" source="yecwBfwort3IGkdsRdy6-24" target="yecwBfwort3IGkdsRdy6-22">
          <mxGeometry relative="1" as="geometry">
            <Array as="points">
              <mxPoint x="545" y="390" />
              <mxPoint x="440" y="390" />
              <mxPoint x="440" y="245" />
            </Array>
          </mxGeometry>
        </mxCell>
        <mxCell id="yecwBfwort3IGkdsRdy6-24" value="*(concat + i) = *(arr1 + i)" style="rounded=0;whiteSpace=wrap;html=1;" vertex="1" parent="1">
          <mxGeometry x="473.75" y="330" width="142.5" height="40" as="geometry" />
        </mxCell>
        <mxCell id="yecwBfwort3IGkdsRdy6-29" style="edgeStyle=orthogonalEdgeStyle;rounded=0;orthogonalLoop=1;jettySize=auto;html=1;entryX=0.5;entryY=0;entryDx=0;entryDy=0;" edge="1" parent="1" source="yecwBfwort3IGkdsRdy6-30" target="yecwBfwort3IGkdsRdy6-32">
          <mxGeometry relative="1" as="geometry" />
        </mxCell>
        <mxCell id="yecwBfwort3IGkdsRdy6-30" value="&quot;Arreglo 2:&quot;" style="shape=document;whiteSpace=wrap;html=1;boundedLbl=1;" vertex="1" parent="1">
          <mxGeometry x="157.5" y="462" width="120" height="50" as="geometry" />
        </mxCell>
        <mxCell id="yecwBfwort3IGkdsRdy6-31" style="edgeStyle=orthogonalEdgeStyle;rounded=0;orthogonalLoop=1;jettySize=auto;html=1;entryX=0.5;entryY=0;entryDx=0;entryDy=0;" edge="1" parent="1" source="yecwBfwort3IGkdsRdy6-32">
          <mxGeometry relative="1" as="geometry">
            <mxPoint x="217.5" y="622" as="targetPoint" />
          </mxGeometry>
        </mxCell>
        <mxCell id="yecwBfwort3IGkdsRdy6-32" value="imprArr(vect2, 5)" style="rounded=0;whiteSpace=wrap;html=1;" vertex="1" parent="1">
          <mxGeometry x="157.5" y="542" width="120" height="50" as="geometry" />
        </mxCell>
        <mxCell id="yecwBfwort3IGkdsRdy6-34" style="edgeStyle=orthogonalEdgeStyle;rounded=0;orthogonalLoop=1;jettySize=auto;html=1;entryX=0.5;entryY=0;entryDx=0;entryDy=0;" edge="1" parent="1" source="yecwBfwort3IGkdsRdy6-35" target="yecwBfwort3IGkdsRdy6-37">
          <mxGeometry relative="1" as="geometry" />
        </mxCell>
        <mxCell id="yecwBfwort3IGkdsRdy6-35" value="&quot;Arreglo concatenado:&quot;" style="shape=document;whiteSpace=wrap;html=1;boundedLbl=1;" vertex="1" parent="1">
          <mxGeometry x="146.25" y="620" width="142.5" height="50" as="geometry" />
        </mxCell>
        <mxCell id="yecwBfwort3IGkdsRdy6-36" style="edgeStyle=orthogonalEdgeStyle;rounded=0;orthogonalLoop=1;jettySize=auto;html=1;entryX=0.5;entryY=0;entryDx=0;entryDy=0;" edge="1" parent="1" source="yecwBfwort3IGkdsRdy6-37">
          <mxGeometry relative="1" as="geometry">
            <mxPoint x="217.5" y="780" as="targetPoint" />
          </mxGeometry>
        </mxCell>
        <mxCell id="yecwBfwort3IGkdsRdy6-37" value="imprArr(vectConcat, 10)" style="rounded=0;whiteSpace=wrap;html=1;" vertex="1" parent="1">
          <mxGeometry x="146.25" y="700" width="142.5" height="50" as="geometry" />
        </mxCell>
        <mxCell id="yecwBfwort3IGkdsRdy6-38" value="return" style="ellipse;whiteSpace=wrap;html=1;" vertex="1" parent="1">
          <mxGeometry x="487.53" y="720" width="110" height="60" as="geometry" />
        </mxCell>
        <mxCell id="yecwBfwort3IGkdsRdy6-40" style="edgeStyle=orthogonalEdgeStyle;rounded=0;orthogonalLoop=1;jettySize=auto;html=1;entryX=0.5;entryY=0;entryDx=0;entryDy=0;" edge="1" parent="1" source="yecwBfwort3IGkdsRdy6-42" target="yecwBfwort3IGkdsRdy6-44">
          <mxGeometry relative="1" as="geometry" />
        </mxCell>
        <mxCell id="yecwBfwort3IGkdsRdy6-41" style="edgeStyle=orthogonalEdgeStyle;rounded=0;orthogonalLoop=1;jettySize=auto;html=1;entryX=0.5;entryY=0;entryDx=0;entryDy=0;" edge="1" parent="1" source="yecwBfwort3IGkdsRdy6-42">
          <mxGeometry relative="1" as="geometry">
            <mxPoint x="542.5299999999997" y="718.5" as="targetPoint" />
            <Array as="points">
              <mxPoint x="647.53" y="501.5" />
              <mxPoint x="647.53" y="666.5" />
              <mxPoint x="542.53" y="666.5" />
            </Array>
          </mxGeometry>
        </mxCell>
        <mxCell id="yecwBfwort3IGkdsRdy6-42" value="Desde i = 0&lt;br&gt;Mientras i &amp;lt; m&lt;br&gt;Incremento i++" style="shape=hexagon;perimeter=hexagonPerimeter2;whiteSpace=wrap;html=1;fixedSize=1;" vertex="1" parent="1">
          <mxGeometry x="475.03" y="461.5" width="135" height="80" as="geometry" />
        </mxCell>
        <mxCell id="yecwBfwort3IGkdsRdy6-43" style="edgeStyle=orthogonalEdgeStyle;rounded=0;orthogonalLoop=1;jettySize=auto;html=1;entryX=0;entryY=0.5;entryDx=0;entryDy=0;" edge="1" parent="1" source="yecwBfwort3IGkdsRdy6-44" target="yecwBfwort3IGkdsRdy6-42">
          <mxGeometry relative="1" as="geometry">
            <Array as="points">
              <mxPoint x="543" y="647" />
              <mxPoint x="440" y="647" />
              <mxPoint x="440" y="501" />
            </Array>
          </mxGeometry>
        </mxCell>
        <mxCell id="yecwBfwort3IGkdsRdy6-44" value="*(concat + n + i) = *(arr2 + i)" style="rounded=0;whiteSpace=wrap;html=1;" vertex="1" parent="1">
          <mxGeometry x="463.16999999999996" y="585" width="158.72" height="40" as="geometry" />
        </mxCell>
      </root>
    </mxGraphModel>
  </diagram>
</mxfile>
